<?xml version="1.0" encoding="UTF-8"?>
<svg width="20px" height="20px" viewBox="0 0 20 20" version="1.1" xmlns="http://www.w3.org/2000/svg" xmlns:xlink="http://www.w3.org/1999/xlink">
    <!-- Generator: Created for Smalruby3 Block Display Settings -->
    <title>Block Display</title>
    <desc>Block Display Settings Icon</desc>
    <defs></defs>
    <g id="Page-1" stroke="none" stroke-width="1" fill="none" fill-rule="evenodd" stroke-linecap="round" stroke-linejoin="round">
        <g id="Block-Display" stroke="#FFFFFF" stroke-width="1.25">
            <g id="blocks" transform="translate(2.000000, 2.000000)">
                <!-- Main block shape -->
                <rect x="1" y="3" width="14" height="4" rx="2" fill="none"/>
                <!-- Left connector notch -->
                <path d="M1,5 L0,5 L0,6 L1,6" fill="none"/>
                <!-- Right connector tab -->
                <path d="M15,5 L16,5 L16,6 L15,6" fill="none"/>
                <!-- Top smaller block -->
                <rect x="3" y="0.5" width="10" height="3" rx="1.5" fill="none"/>
                <!-- Top block connector tab -->
                <path d="M11,0.5 L12,0.5 L12,1.5 L11,1.5" fill="none"/>
                <!-- Bottom smaller block -->
                <rect x="3" y="8.5" width="10" height="3" rx="1.5" fill="none"/>
                <!-- Bottom block connector notch -->
                <path d="M9,8.5 L8,8.5 L8,9.5 L9,9.5" fill="none"/>
                <!-- Settings/configuration dots -->
                <circle cx="5" cy="5" r="0.5" fill="#FFFFFF"/>
                <circle cx="7" cy="5" r="0.5" fill="#FFFFFF"/>
                <circle cx="9" cy="5" r="0.5" fill="#FFFFFF"/>
            </g>
        </g>
    </g>
</svg>