<?xml version="1.0" encoding="UTF-8"?><svg id="_レイヤー_1" xmlns="http://www.w3.org/2000/svg" viewBox="0 0 20 20"><defs><style>.cls-1{stroke-width:.48px;}.cls-1,.cls-2,.cls-3,.cls-4,.cls-5,.cls-6,.cls-7{stroke-linecap:round;stroke-linejoin:round;}.cls-1,.cls-2,.cls-3,.cls-4,.cls-5,.cls-6,.cls-7,.cls-8{stroke:#fff;}.cls-1,.cls-3,.cls-6,.cls-7,.cls-8{fill:none;}.cls-9,.cls-2,.cls-5{fill:#fff;}.cls-2{stroke-width:.24px;}.cls-3{stroke-width:.42px;}.cls-4{fill:#f0bd81;mix-blend-mode:multiply;stroke-width:.36px;}.cls-4,.cls-10{isolation:isolate;}.cls-5,.cls-6{stroke-width:.5px;}.cls-7{stroke-width:.38px;}.cls-8{stroke-miterlimit:10;stroke-width:.32px;}</style></defs><g class="cls-10"><g id="_レイヤー_1-2"><path class="cls-1" d="M11.42,17.93c.56.49,1.79.76,1.82-.34s-1.55-.88-1.94-.16c-.39.72.12.5.12.5ZM11.75,17.67c.35-.37.88-.38.88-.14s-.19.51-.88.14Z"/><path class="cls-1" d="M8.21,18.23c.75.63,1.72-.08,2.16-.45,0,0,.77.3.4-.24-.36-.54-1.47-.97-2.27-.85-.81.12-1.04.91-.29,1.54ZM9.84,17.55c-.44.37-1.3.43-1.38.07-.08-.37.66-.42,1.38-.07Z"/><path class="cls-1" d="M11.24,18.23c.6.07.78-.88.03-1.21s-.9.33-.6.67c.3.34.57.54.57.54Z"/><path class="cls-1" d="M11.27,17.55c-.44-.55-1.86.14-.55.84"/><path class="cls-1" d="M10.99,18.15c.14.37.55.88.74,1.03.19.14-.42.62-.62.38-.21-.24-.39-.91-.39-1.17s.27-.24.27-.24Z"/><path class="cls-1" d="M10.85,18.68c.03-.45.38-.35.2-.7-.18-.34-.9,0-1.03.68s-.09.84.17.93.62.16.64-.12,0-.34.03-.8h-.01Z"/><path class="cls-1" d="M13.41,16.43c2.37-.29,2.71-3.26,2.63-3.77"/><path class="cls-1" d="M15.6,10.75c.02.1.18,2.92-.69,4.34-.87,1.41-2.39,1.82-3.42,2.02-1.03.2-2.75-.27-3.86-.76-1.11-.49-1.9-1.6-2.14-3.4"/><path class="cls-3" d="M14.99,11.24c-.02,1.35-.77,2.32-1.75,2.23-.78-.07-1.11-.52-1.2-1.15"/><path class="cls-3" d="M10.26,12.21c-.16.8-.74,1.41-1.76,1.24-1.03-.17-1.59-.9-1.63-2.22"/><path class="cls-4" d="M11.74,14.13c-.11.09-.43.1-.51.09l.26.27s.2-.21.24-.36h.01Z"/><path class="cls-2" d="M12.63,12c0,.34.14.62.31.62s.31-.28.31-.62"/><path class="cls-8" d="M12.71,12c0,.28.11.51.24.51s.24-.23.24-.51"/><path d="M12.81,12c0,.14.05.26.12.26s.12-.11.12-.26-.05-.26-.12-.26-.12.11-.12.26Z"/><path class="cls-2" d="M8.26,11.8c0,.38.15.69.34.69s.34-.31.34-.69"/><path class="cls-8" d="M8.34,11.8c0,.31.12.56.26.56s.26-.25.26-.56"/><path class="cls-3" d="M12.61,15.62c.05-.11-.5-.64-1.5-.66-1-.02-2.2.37-2.41.94l.04.03"/><path class="cls-1" d="M5.78,13.01c.45,1.98,1.68,3.79,4,4.01.3.02-1.96.42-3.59-1.65-.19-.24-.36-.49-.5-.74"/><path class="cls-5" d="M15.37,10.78c.47,1.22.55,5.52.55,5.52l.33.06"/><path class="cls-5" d="M18.49,9.71c-.87,0-1.44.21-1.73.52-.29.31-.28-.57-.28-.57-.02.2,1.03-.92,2.01.05Z"/><path class="cls-9" d="M15.71,8.17c.08-.27-.16-.77-.45-.21.63-1.08,2.15-1.52,2.59-.88.44.64.67,2.26.64,2.62-.18-.14-.25-.25-.41-.32-.07-1.25-.49-2.1-.49-2.1-.63-.49-1.62.11-1.88.88h0Z"/><path class="cls-6" d="M17.19,6.75c.27.02.52.13.66.34.44.64.67,2.26.64,2.62-.98-.8-1.74-.29-2.14.47"/><path class="cls-9" d="M16.71,8.02c.05.11.18.15.28.1.1-.06.15-.19.09-.3-.05-.11-.18-.15-.28-.1-.1.06-.15.19-.09.3Z"/><path class="cls-9" d="M17,8.62c.05.11.18.15.28.1.1-.06.15-.19.09-.3-.05-.11-.18-.15-.28-.1-.1.06-.15.19-.09.3Z"/><path class="cls-9" d="M17.24,7.87c-.1.06-.15.19-.09.3.05.11.18.15.28.1.1-.06.15-.19.09-.3-.05-.11-.18-.15-.28-.1Z"/><path class="cls-9" d="M16.66,8.17c-.1.06-.15.19-.09.3.05.11.18.15.28.1.1-.06.15-.19.09-.3-.05-.11-.18-.15-.28-.1Z"/><path class="cls-7" d="M17.68,12.22c-.11,1.07-.54,1.89-1.47,2.26"/><path class="cls-7" d="M17.08,11.24c-.09.59-.35,1.03-.96,1.19"/><path class="cls-6" d="M16.05,12.65c.17,1.68.17,3.49.17,3.65,0,.24,1.14-.51,1.62-1.63.48-1.13.29-1.59.08-2.05-.21-.46-1.3-2.35-1.47-2.4-.17-.05-.77.5-.77.5.17.56.29,1.13.37,1.94"/><path class="cls-7" d="M17.06,11.15c-.1.59-.38,1.02-1,1.16"/><path class="cls-7" d="M17.64,12.09c-.11,1.07-.54,1.89-1.47,2.26"/><path class="cls-5" d="M6.41,10.72c-.55,2.67-.55,5.66-.55,5.66l-.35.15"/><path class="cls-9" d="M5.18,16.07c-.05-.82.18-4.37.56-5.83,0,0-.03-.05-.08-.13.27.26.43.54.43.54-.38,1.47-.63,5.06-.58,5.88-1.57.14-2.9-1-3.63-1.96.8.84,1.95,1.62,3.3,1.5Z"/><path class="cls-7" d="M2.21,11.79c.33,1.3,1.47,2.73,3.38,2.94"/><path class="cls-7" d="M5.75,12.74c-1.22-.2-2.21-.93-2.63-2.18"/><path class="cls-7" d="M5.75,12.59c-1.22-.18-2.22-.9-2.66-2.14"/><path class="cls-7" d="M2.19,11.64c.33,1.3,1.48,2.72,3.39,2.92"/><path class="cls-6" d="M5.98,10.91c-.31,1.73-.51,4.89-.47,5.61-2.01.18-3.96-1.71-4.22-2.67.36-1.69,1.41-3.13,2.32-3.91"/><path class="cls-6" d="M5.54,10.37c-.32-1.46-2.51-1.31-3.13-.56-.05-.4.33-1.44.92-2.57"/><path class="cls-5" d="M5.48,10.54c-.85-.59-3.07-.72-3.07-.72.42-1.91,4-.49,3.07.72Z"/><path class="cls-9" d="M15.02,11.27c-1.15.65-2.36.98-2.83,1.01-.67.05-3.58.08-6.64-1.72,0,0,.02-.15.06-.38,3.04,1.74,5.92,1.77,6.59,1.72.67-.05,2.88-.72,4.25-2.04.03.18.03.31,0,.35-.42.41-.92.77-1.44,1.06"/><path class="cls-6" d="M6.68,7.78c-.89.9-1.12,2.78-1.12,2.78,3.06,1.8,5.97,1.77,6.64,1.72s3.01-.83,4.37-2.17c.16-.19-.81-2.37-1.09-2.48"/><path class="cls-9" d="M4.37,8.12c-.04.13.03.26.15.3s.26-.03.3-.15c.04-.13-.03-.26-.15-.3s-.26.03-.3.15Z"/><path class="cls-9" d="M5.13,7.72c-.12-.04-.26.03-.3.15-.04.13.03.26.15.3s.26-.03.3-.15c.04-.13-.03-.26-.15-.3Z"/><path class="cls-9" d="M4.44,7.5c-.12-.04-.26.03-.3.15-.04.13.03.26.15.3s.26-.03.3-.15c.04-.13-.03-.26-.15-.3Z"/><path class="cls-9" d="M15.65,2.8c.78.17,1.72,1.11,1.89,2.08.19,1.11.15,2.38-2.24,2.52l-.04-.27c3.24-.08,2.27-3.17.39-4.33Z"/><path class="cls-6" d="M15.59,2.77c.8.13,1.78,1.1,1.95,2.09.18,1.04-.04,2.27-2.04,2.54"/><path class="cls-9" d="M14.44,1.59c.23.14.43.28.6.42.77.65.55,1.49.2,2.02-.34.53-.33.72-.81.84-.07.02-.18,0-.31-.04,1.55-.82,1.44-2.12.32-3.25h0Z"/><path class="cls-6" d="M12.06,1.03c.86-.32,2.26.37,2.97.98.77.65.55,1.49.2,2.02-.31.48-.59.7-1,.82"/><path class="cls-9" d="M10.91.54c.53.15.94.35,1.05.57.34.65.11,2.32-.46,2.42l-.15-.08c.25-.71.63-2.16-.45-2.91h0Z"/><path class="cls-6" d="M7.68.94s.05-.09.07-.11c.71-.96,3.86-.37,4.21.29.34.65.29,2.07-.34,2.33"/><path class="cls-9" d="M15.1,5.86c.22.39.39.87.36,1.31-.05.98-.63,1.64-2.27,2.03,1.63-.61,2.37-1.85,1.91-3.34Z"/><path class="cls-6" d="M12.61,9.31c2.08-.37,2.79-1.06,2.85-2.15.06-1.08-1.01-2.37-1.21-2"/><path class="cls-9" d="M13.44,4.13c.65.34,1.25,1.06,1.29,1.85.06,1.21-.69,2.56-2.91,4.15,2.17-1.58,3.5-4.4,1.62-6.01h0Z"/><path class="cls-6" d="M12.68,3.92c.86-.01,1.99.95,2.05,2.06.06,1.21-.69,2.56-2.91,4.15"/><path class="cls-9" d="M10.9,3.31c.48.07.93.17,1.28.32,1.23.51,2.02,3.48-.36,6.5v-.17c1.31-2.06,1.93-5.92-.91-6.65h-.01Z"/><path class="cls-6" d="M7.78,3.57c1.15-.5,3.28-.41,4.41.06,1.23.51,2.02,3.48-.36,6.5"/><path class="cls-9" d="M7.22.64c.24.02.43.08.54.19-.3,1.04.28,2.27.63,2.56,0,0-.11.02-.25.05-1.08-.71-1.33-2.21-.92-2.8Z"/><path class="cls-9" d="M6.94,3.94c-.36,0,.31-.38,1.16-.49-.11.03-.23.07-.32.12,2-.14,4.65,1.08,4.04,6.56,0-.02-.02-.04-.03-.06.11-7.26-4.51-6.13-4.85-6.13Z"/><path class="cls-6" d="M4.03,2.2c.44-1.21,3.15-1.94,3.72-1.37-.3,1.04.28,2.27.63,2.56,0,0-.38.06-.61.18,2-.14,4.65,1.08,4.04,6.56"/><path class="cls-6" d="M4.03,2.2c-.97-.08-2.08.8-2.33,2.35-.26,1.66.83,3.03,3.13,2.94,2.31-.08,2.98.09,3.97.74,1.68.29,1.61.98,3,1.9-.22-1.57-.93-4.03-3.52-4.54-2.59-.51-4.39-.94-4.27-3.39h.02Z"/><path class="cls-6" d="M7.53,9.2c.07-.44.64-.78,1.28-1"/><path class="cls-6" d="M14.87,9.66c-.92.48-2.29.53-3.07.57"/><path class="cls-6" d="M14.91,8.48c.43.39.53.89-.03,1.18"/><path class="cls-6" d="M11.8,10.2c-1.1.05-4.33-.15-4.27-.9"/></g></g></svg>