<?xml version="1.0" standalone="no"?>
<!DOCTYPE svg PUBLIC "-//W3C//DTD SVG 20010904//EN"
 "http://www.w3.org/TR/2001/REC-SVG-20010904/DTD/svg10.dtd">
<svg version="1.0" xmlns="http://www.w3.org/2000/svg"
 width="80.000000pt" height="78.000000pt" viewBox="0 0 80.000000 78.000000"
 preserveAspectRatio="xMidYMid meet">
<metadata>
Created by potrace 1.16, written by Peter Selinger 2001-2019
</metadata>
<g transform="translate(0.000000,78.000000) scale(0.100000,-0.100000)"
fill="#000000" stroke="none">
<path d="M615 722 c-48 -15 -51 -18 -68 -70 l-18 -55 26 -27 c39 -41 30 -100
-16 -100 -10 0 -21 -9 -24 -20 -8 -24 -24 -25 -51 -5 -18 14 -17 14 15 15 19
0 32 3 28 6 -11 12 -97 -7 -97 -21 0 -7 6 -16 13 -18 7 -3 6 -6 -5 -6 -9 -1
-20 3 -23 9 -3 5 -15 15 -25 20 -18 10 -19 8 -10 -16 6 -15 9 -28 7 -30 -6 -6
-58 66 -53 74 3 5 -1 9 -9 9 -12 0 -11 -6 1 -36 9 -20 18 -41 21 -47 2 -7 -8
-24 -24 -39 l-28 -26 35 20 35 20 24 -34 c29 -43 55 -52 87 -30 30 19 48 12
34 -14 -5 -10 -7 -21 -4 -24 8 -8 46 32 39 42 -2 5 3 12 12 15 13 5 14 9 5 15
-10 6 -10 10 1 20 18 14 48 4 40 -15 -7 -20 4 -17 28 7 21 21 36 64 18 54 -5
-4 -9 -1 -9 5 0 6 -4 8 -10 5 -5 -3 -11 0 -11 7 -1 7 -3 28 -5 46 -2 17 0 32
5 32 14 0 33 -28 27 -39 -3 -5 1 -12 10 -15 8 -3 12 -2 9 4 -12 19 9 10 38
-17 25 -25 29 -26 25 -8 -2 11 -9 21 -16 21 -6 1 -14 2 -17 3 -3 0 0 11 6 24
6 12 8 19 4 15 -4 -4 -14 3 -21 17 -15 29 1 85 26 86 13 0 13 1 0 6 -8 3 -28
15 -43 26 -25 17 -27 21 -13 36 12 13 41 74 33 70 -1 -1 -25 -8 -52 -17z
m-155 -328 c0 -8 5 -14 10 -14 6 0 10 -5 10 -11 0 -8 -4 -9 -13 0 -8 6 -16 9
-19 6 -3 -3 -11 2 -19 12 -12 15 -12 16 3 10 13 -4 15 -2 11 10 -4 11 -2 14 5
9 7 -4 12 -14 12 -22z m55 16 c3 -5 1 -10 -4 -10 -6 0 -11 5 -11 10 0 6 2 10
4 10 3 0 8 -4 11 -10z m89 -15 c-4 -8 -14 -15 -23 -15 -14 1 -13 3 3 15 25 19
27 19 20 0z"/>
<path d="M154 536 c-10 -8 -16 -17 -13 -20 3 -3 14 3 24 14 21 23 17 26 -11 6z"/>
<path d="M310 531 c0 -5 7 -11 15 -15 8 -3 15 -1 15 3 0 5 -7 11 -15 15 -8 3
-15 1 -15 -3z"/>
<path d="M187 453 c-11 -11 -8 -21 9 -27 19 -7 47 12 38 25 -6 11 -38 12 -47
2z"/>
<path d="M677 400 c-3 -11 -1 -20 4 -20 5 0 9 9 9 20 0 11 -2 20 -4 20 -2 0
-6 -9 -9 -20z"/>
<path d="M256 315 c-3 -9 -6 -26 -5 -38 1 -16 4 -12 10 12 10 34 6 55 -5 26z"/>
<path d="M262 220 c0 -14 2 -19 5 -12 2 6 2 18 0 25 -3 6 -5 1 -5 -13z"/>
<path d="M272 160 c0 -14 2 -19 5 -12 2 6 2 18 0 25 -3 6 -5 1 -5 -13z"/>
<path d="M405 160 c11 -5 27 -9 35 -9 13 -1 13 0 0 9 -8 5 -24 9 -35 9 l-20 0
20 -9z"/>
<path d="M469 153 c-13 -16 -12 -17 4 -4 16 13 21 21 13 21 -2 0 -10 -8 -17
-17z"/>
</g>
</svg>
