<?xml version="1.0" encoding="UTF-8" standalone="no"?>
<!-- Generator: Adobe Illustrator 15.0.0, SVG Export Plug-In . SVG Version: 6.00 Build 0)  -->

<svg
   version="1.1"
   id="layer_1"
   x="0px"
   y="0px"
   width="20px"
   height="20px"
   viewBox="0 0 20 20"
   enable-background="new 0 0 20 20"
   xml:space="preserve"
   sodipodi:docname="icon--ruby.svg"
   inkscape:version="1.3 (0e150ed, 2023-07-21)"
   xmlns:inkscape="http://www.inkscape.org/namespaces/inkscape"
   xmlns:sodipodi="http://sodipodi.sourceforge.net/DTD/sodipodi-0.dtd"
   xmlns="http://www.w3.org/2000/svg"
   xmlns:svg="http://www.w3.org/2000/svg"><defs
   id="defs3" /><sodipodi:namedview
   id="namedview3"
   pagecolor="#ffffff"
   bordercolor="#000000"
   borderopacity="0.25"
   inkscape:showpageshadow="2"
   inkscape:pageopacity="0.0"
   inkscape:pagecheckerboard="0"
   inkscape:deskcolor="#d1d1d1"
   inkscape:zoom="50.293274"
   inkscape:cx="11.323582"
   inkscape:cy="8.867985"
   inkscape:window-width="1664"
   inkscape:window-height="967"
   inkscape:window-x="0"
   inkscape:window-y="0"
   inkscape:window-maximized="0"
   inkscape:current-layer="layer_1"
   showgrid="true"><inkscape:grid
     id="grid1"
     units="px"
     originx="0"
     originy="0"
     spacingx="1"
     spacingy="1"
     empcolor="#0099e5"
     empopacity="0.30196078"
     color="#0099e5"
     opacity="0.14901961"
     empspacing="5"
     dotted="false"
     gridanglex="30"
     gridanglez="30"
     visible="true" /></sodipodi:namedview>&#10;<g
   id="g1"
   style="fill:#ffffff"
   transform="matrix(0.78149672,0,0,0.7762971,2.0911477,3.9724932)">&#10;	<path
   fill="#855CD6"
   d="m 13.476695,5.1910998 c 0.810009,0.05228 1.217296,0.8422953 1.770138,1.3265332 0.617161,0.6702589 1.308993,1.2813836 1.875828,1.9914981 0.128763,0.5678671 -0.497044,0.8585742 -0.794392,1.2527796 C 14.374023,11.779569 12.418942,13.796418 10.463689,15.8131 9.9514907,16.241679 9.5742528,15.554547 9.2346729,15.252113 7.2308038,13.185205 5.2272602,11.117982 3.2233652,9.0510998 2.8019121,8.5110702 3.4985621,8.1161233 3.8033682,7.7456179 4.5774035,6.9712176 5.3058548,6.1453941 6.1100063,5.4049435 6.7505341,5.0309772 7.5198681,5.2449633 8.2249614,5.1887519 c 1.7505779,7.826e-4 3.5011556,0.00157 5.2517336,0.00235 z"
   id="path1"
   style="fill:#ffffff;stroke-width:0.984441" />&#10;</g>&#10;<path
   fill="none"
   stroke="#000000"
   stroke-miterlimit="10"
   d="M14.013,8.109"
   id="path2" />&#10;<path
   fill="none"
   stroke="#000000"
   stroke-miterlimit="10"
   d="M5.7,8.109"
   id="path3" />&#10;<g
   id="Page-1"
   stroke="none"
   stroke-width="1"
   fill="none"
   fill-rule="evenodd"
   transform="translate(4.1868633,-5.1360343)"
   style="stroke:#ffffff;stroke-opacity:0;stroke-width:0;stroke-dasharray:none;fill:#ffffff;fill-opacity:1"><g
     id="file-upload"
     fill="#ffffff"
     style="stroke:#ffffff;stroke-opacity:0;stroke-width:0;stroke-dasharray:none;fill:#ffffff;fill-opacity:1"><path
       d="m 8.0427904,9.7095343 c 0.7015528,0.6892177 1.3654787,1.4235227 2.0911486,2.0838417 0.367244,0.06538 0.545479,-0.361903 0.803105,-0.557479 0.518184,-0.537322 1.064414,-1.050785 1.564635,-1.6033858 C 12.608046,8.7221483 11.261809,9.7560843 11.032868,8.9547434 10.656719,8.2835484 10.695614,7.4815524 10.619604,6.7472141 10.323642,6.2197662 9.7161517,6.6688616 9.7384789,7.1438663 9.5675212,7.8294106 9.3965634,8.514955 9.2256057,9.2004993 8.8467362,9.2258636 8.4467025,9.1440906 8.0838608,9.2530235 7.9339799,9.352276 7.9092946,9.585554 8.0427904,9.7095343 Z m 5.9359086,1.3817467 c -0.04118,0.775218 0.168121,1.655862 -0.383532,2.302832 -0.413336,0.559734 -1.134591,0.669033 -1.782631,0.62283 -1.300805,-0.01218 -2.6040798,0.02499 -3.9032613,-0.01977 -0.9076754,-0.118891 -1.5365984,-1.042492 -1.429042,-1.930298 0.034325,-0.427809 -0.084334,-0.88776 0.094333,-1.28728 0.3867365,-0.568914 1.1751616,-0.03055 1.0008667,0.55511 0.034506,0.43494 -0.086573,0.902604 0.1004932,1.307799 0.3191361,0.420878 0.8909575,0.218063 1.3429144,0.266229 1.1324241,-0.008 2.2665461,0.01622 3.3978881,-0.01238 0.564234,-0.126277 0.462754,-0.759064 0.466772,-1.19462 0.0096,-0.416134 -0.110062,-1.033242 0.438122,-1.153475 0.331057,-0.07852 0.670077,0.204182 0.657077,0.54302 z"
       id="file-upload-icon"
       style="fill:#ffffff;fill-opacity:1;stroke:#ffffff;stroke-width:0;stroke-dasharray:none;stroke-opacity:0" /></g></g></svg>
